<svg width="50" height="50" viewBox="0 0 50 50" fill="none" xmlns="http://www.w3.org/2000/svg">
<circle cx="25" cy="21" r="16.5" stroke="#EEE" stroke-width="3"/>
<g style="mix-blend-mode:multiply">
<path d="M26.5 29C26.5 28.1716 25.8284 27.5 25 27.5C24.1716 27.5 23.5 28.1716 23.5 29H26.5ZM23.5 29V46H26.5V29H23.5Z" fill="#EEE"/>
<path d="M10 44.5C10 44.5 16.5 47 25 47C33.5 47 40 44.5 40 44.5" stroke="#EEE" stroke-width="3" stroke-linecap="round"/>
<path d="M23.9832 30.168C22.8565 30.1333 21.8685 30.0293 21.0192 29.856C20.1698 29.6653 19.3812 29.414 18.6532 29.102V25.462C19.4158 25.8087 20.2825 26.112 21.2532 26.372C22.2238 26.6147 23.1338 26.7707 23.9832 26.84V23.252C23.0645 22.9227 22.2585 22.5933 21.5652 22.264C20.8718 21.9347 20.2912 21.562 19.8232 21.146C19.3725 20.73 19.0258 20.2533 18.7832 19.716C18.5578 19.1787 18.4452 18.546 18.4452 17.818C18.4452 16.8647 18.6792 16.0587 19.1472 15.4C19.6152 14.724 20.2652 14.1953 21.0972 13.814C21.9292 13.4327 22.8912 13.2073 23.9832 13.138V11.266H26.0112V13.086C27.0338 13.138 27.9698 13.268 28.8192 13.476C29.6858 13.684 30.5005 13.9527 31.2632 14.282L30.0932 17.48C29.4345 17.1853 28.7498 16.96 28.0392 16.804C27.3458 16.648 26.6698 16.5353 26.0112 16.466V19.95C27.0858 20.2967 28.0478 20.678 28.8972 21.094C29.7465 21.4927 30.4138 22.0127 30.8992 22.654C31.4018 23.278 31.6532 24.1013 31.6532 25.124C31.6532 26.4413 31.1938 27.5593 30.2752 28.478C29.3565 29.3793 27.9352 29.9253 26.0112 30.116V32.508H23.9832V30.168ZM26.0112 26.762C26.5658 26.6753 26.9732 26.5193 27.2332 26.294C27.4932 26.0687 27.6232 25.774 27.6232 25.41C27.6232 25.1673 27.5712 24.968 27.4672 24.812C27.3632 24.6387 27.1898 24.4827 26.9472 24.344C26.7045 24.188 26.3925 24.032 26.0112 23.876V26.762ZM23.9832 16.518C23.6538 16.5527 23.3765 16.622 23.1512 16.726C22.9258 16.83 22.7525 16.9687 22.6312 17.142C22.5098 17.298 22.4492 17.4887 22.4492 17.714C22.4492 17.9393 22.5012 18.1473 22.6052 18.338C22.7092 18.5113 22.8738 18.6673 23.0992 18.806C23.3245 18.9447 23.6192 19.092 23.9832 19.248V16.518Z" fill="#EEE"/>
</g>
</svg>
