<svg width="50" height="50" viewBox="0 0 50 50" fill="none" xmlns="http://www.w3.org/2000/svg">
<circle cx="30.3334" cy="14.4242" r="11.4242" stroke="#EEE" stroke-width="2"/>
<path d="M29.5512 21.36C28.6845 21.3333 27.9245 21.2533 27.2712 21.12C26.6178 20.9733 26.0112 20.78 25.4512 20.54V17.74C26.0378 18.0067 26.7045 18.24 27.4512 18.44C28.1978 18.6267 28.8978 18.7467 29.5512 18.8V16.04C28.8445 15.7867 28.2245 15.5333 27.6912 15.28C27.1578 15.0267 26.7112 14.74 26.3512 14.42C26.0045 14.1 25.7378 13.7333 25.5512 13.32C25.3778 12.9067 25.2912 12.42 25.2912 11.86C25.2912 11.1267 25.4712 10.5067 25.8312 10C26.1912 9.48 26.6912 9.07333 27.3312 8.78C27.9712 8.48667 28.7112 8.31333 29.5512 8.26V6.82H31.1112V8.22C31.8978 8.26 32.6178 8.36 33.2712 8.52C33.9378 8.68 34.5645 8.88667 35.1512 9.14L34.2512 11.6C33.7445 11.3733 33.2178 11.2 32.6712 11.08C32.1378 10.96 31.6178 10.8733 31.1112 10.82V13.5C31.9378 13.7667 32.6778 14.06 33.3312 14.38C33.9845 14.6867 34.4978 15.0867 34.8712 15.58C35.2578 16.06 35.4512 16.6933 35.4512 17.48C35.4512 18.4933 35.0978 19.3533 34.3912 20.06C33.6845 20.7533 32.5912 21.1733 31.1112 21.32V23.16H29.5512V21.36ZM31.1112 18.74C31.5378 18.6733 31.8512 18.5533 32.0512 18.38C32.2512 18.2067 32.3512 17.98 32.3512 17.7C32.3512 17.5133 32.3112 17.36 32.2312 17.24C32.1512 17.1067 32.0178 16.9867 31.8312 16.88C31.6445 16.76 31.4045 16.64 31.1112 16.52V18.74ZM29.5512 10.86C29.2978 10.8867 29.0845 10.94 28.9112 11.02C28.7378 11.1 28.6045 11.2067 28.5112 11.34C28.4178 11.46 28.3712 11.6067 28.3712 11.78C28.3712 11.9533 28.4112 12.1133 28.4912 12.26C28.5712 12.3933 28.6978 12.5133 28.8712 12.62C29.0445 12.7267 29.2712 12.84 29.5512 12.96V10.86Z" fill="#EEE"/>
<g style="mix-blend-mode:multiply">
<path d="M10.2828 46.5557L4.41421 40.6871C3.63317 39.9061 3.63316 38.6398 4.41421 37.8587L5.31306 36.9599C6.09411 36.1788 7.36044 36.1788 8.14149 36.9599L14.01 42.8284C14.7911 43.6095 14.7911 44.8758 14.01 45.6568L13.1112 46.5557C12.3301 47.3367 11.0638 47.3367 10.2828 46.5557Z" stroke="#EEE" stroke-width="2"/>
<path d="M13.5606 46.1062C13.5606 46.1062 17.9091 41.7577 19.1515 40.5153C20.3939 39.2729 32.197 42.3789 34.0606 41.7577C35.9242 41.1365 38.4091 40.5153 40.2727 38.0305C42.1364 35.5456 44 29.3335 44 29.3335C44 29.3335 44 26.8486 42.7576 26.8486C41.5152 26.8486 40.2727 29.3335 40.2727 29.3335C40.2727 29.3335 37.1667 34.9244 36.5455 35.5456C35.9242 36.1668 32.197 34.9244 32.197 34.9244" stroke="#EEE" stroke-width="2"/>
<path d="M31.5757 31.197L32.0229 30.3026L31.9128 30.2475L31.7926 30.2208L31.5757 31.197ZM30.3333 35.5455L29.9822 36.4818L30.1519 36.5455H30.3333V35.5455ZM20.6989 33.3544C20.1749 33.529 19.8918 34.0953 20.0664 34.6193C20.2411 35.1432 20.8074 35.4264 21.3313 35.2517L20.6989 33.3544ZM18.5302 28.4697C19.2542 28.4698 20.0329 28.7133 20.9411 29.0917C21.7794 29.441 22.8323 29.9578 23.8049 30.282L24.4374 28.3847C23.5464 28.0877 22.7357 27.6728 21.7103 27.2455C20.7549 26.8475 19.67 26.4698 18.5303 26.4697L18.5302 28.4697ZM23.8049 30.282C24.7867 30.6093 26.6962 31.0854 28.3157 31.4709C29.135 31.666 29.8953 31.8415 30.4506 31.9681C30.7284 32.0315 30.9551 32.0827 31.1125 32.1181C31.1912 32.1357 31.2526 32.1495 31.2944 32.1588C31.3153 32.1635 31.3313 32.1671 31.3421 32.1695C31.3475 32.1707 31.3517 32.1716 31.3544 32.1722C31.3558 32.1725 31.3569 32.1728 31.3576 32.1729C31.358 32.173 31.3583 32.1731 31.3585 32.1731C31.3586 32.1731 31.3586 32.1732 31.3587 32.1732C31.3587 32.1732 31.3588 32.1732 31.5757 31.197C31.7926 30.2208 31.7926 30.2208 31.7926 30.2208C31.7926 30.2208 31.7925 30.2208 31.7925 30.2208C31.7923 30.2207 31.7921 30.2207 31.7918 30.2206C31.7911 30.2205 31.7902 30.2203 31.7889 30.22C31.7862 30.2194 31.7823 30.2185 31.7771 30.2174C31.7666 30.215 31.751 30.2115 31.7305 30.207C31.6895 30.1978 31.629 30.1842 31.5512 30.1667C31.3955 30.1318 31.1709 30.081 30.8954 30.0182C30.3442 29.8925 29.5903 29.7185 28.7789 29.5253C27.137 29.1344 25.3192 28.6786 24.4374 28.3847L23.8049 30.282ZM31.5757 31.197C31.1285 32.0914 31.128 32.0912 31.1275 32.0909C31.1273 32.0908 31.1268 32.0906 31.1264 32.0904C31.1258 32.0901 31.1251 32.0897 31.1245 32.0894C31.1232 32.0888 31.1221 32.0882 31.1209 32.0876C31.1187 32.0865 31.1167 32.0854 31.115 32.0845C31.1116 32.0827 31.1092 32.0814 31.1077 32.0806C31.1049 32.0791 31.1059 32.0795 31.1101 32.0821C31.1187 32.0873 31.1399 32.1008 31.1698 32.1232C31.2301 32.1684 31.3215 32.247 31.4161 32.3653C31.595 32.589 31.8181 32.9929 31.8181 33.6818L33.8181 33.6818C33.8181 32.5071 33.42 31.6687 32.9778 31.1159C32.7617 30.8458 32.5426 30.6527 32.3698 30.5232C32.2833 30.4582 32.2074 30.4086 32.1481 30.3725C32.1184 30.3545 32.0926 30.3398 32.0716 30.3282C32.0611 30.3224 32.0517 30.3174 32.0435 30.3131C32.0395 30.311 32.0357 30.3091 32.0323 30.3073C32.0306 30.3064 32.0289 30.3056 32.0274 30.3048C32.0266 30.3044 32.0258 30.304 32.0251 30.3037C32.0247 30.3035 32.0242 30.3032 32.024 30.3031C32.0235 30.3028 32.0229 30.3026 31.5757 31.197ZM31.8181 33.6818C31.8181 33.9019 31.7533 34.0152 31.6825 34.0949C31.5932 34.1953 31.4428 34.2944 31.2246 34.3762C31.0105 34.4565 30.7821 34.501 30.5975 34.5241C30.5078 34.5353 30.4345 34.5407 30.3866 34.5433C30.3627 34.5446 30.3455 34.5451 30.3362 34.5453C30.3315 34.5455 30.3289 34.5455 30.3283 34.5455C30.328 34.5455 30.3283 34.5455 30.3291 34.5455C30.3295 34.5455 30.3301 34.5455 30.3308 34.5455C30.3311 34.5455 30.3315 34.5455 30.3319 34.5455C30.3321 34.5455 30.3325 34.5455 30.3326 34.5455C30.3329 34.5455 30.3333 34.5455 30.3333 35.5455C30.3333 36.5455 30.3337 36.5455 30.334 36.5455C30.3342 36.5455 30.3346 36.5455 30.3349 36.5455C30.3354 36.5455 30.336 36.5455 30.3367 36.5455C30.338 36.5455 30.3394 36.5455 30.341 36.5455C30.3442 36.5454 30.3481 36.5454 30.3525 36.5454C30.3614 36.5452 30.3726 36.5451 30.3862 36.5447C30.4132 36.544 30.4494 36.5428 30.4935 36.5404C30.5815 36.5357 30.7023 36.5265 30.8456 36.5086C31.1269 36.4735 31.5197 36.4015 31.9268 36.2489C32.3298 36.0977 32.8006 35.8474 33.1773 35.4236C33.5723 34.9792 33.8181 34.3936 33.8181 33.6818L31.8181 33.6818ZM30.3333 35.5455C30.6844 34.6092 30.6844 34.6091 30.6843 34.6091C30.6842 34.6091 30.6841 34.6091 30.684 34.609C30.6838 34.6089 30.6836 34.6088 30.6832 34.6087C30.6825 34.6084 30.6815 34.6081 30.6802 34.6076C30.6776 34.6066 30.6738 34.6052 30.6689 34.6033C30.659 34.5997 30.6445 34.5943 30.6257 34.5873C30.5881 34.5733 30.5332 34.5529 30.463 34.5271C30.3227 34.4754 30.1214 34.4017 29.8761 34.3134C29.386 34.137 28.7181 33.9012 28.0094 33.665C27.3028 33.4295 26.5453 33.19 25.8791 33.0083C25.2561 32.8384 24.5863 32.6818 24.1212 32.6818V34.6818C24.2772 34.6818 24.6946 34.7583 25.3528 34.9378C25.9678 35.1055 26.6857 35.332 27.3769 35.5624C28.0659 35.792 28.7181 36.0222 29.1986 36.1952C29.4387 36.2816 29.6353 36.3535 29.7716 36.4038C29.8398 36.4289 29.8928 36.4485 29.9286 36.4618C29.9465 36.4685 29.9601 36.4736 29.9691 36.4769C29.9736 36.4786 29.977 36.4799 29.9792 36.4807C29.9803 36.4811 29.9811 36.4814 29.9816 36.4816C29.9818 36.4817 29.982 36.4817 29.9821 36.4818C29.9821 36.4818 29.9822 36.4818 29.9822 36.4818C29.9822 36.4818 29.9822 36.4818 30.3333 35.5455ZM24.1212 32.6818C23.3708 32.6818 22.495 32.8635 21.8597 33.0223C21.5307 33.1046 21.2436 33.1866 21.0384 33.2482C20.9355 33.279 20.8525 33.305 20.7944 33.3234C20.7653 33.3327 20.7424 33.3401 20.7263 33.3454C20.7183 33.348 20.7119 33.3501 20.7073 33.3516C20.705 33.3523 20.7031 33.353 20.7017 33.3534C20.701 33.3537 20.7004 33.3539 20.7 33.354C20.6997 33.3541 20.6995 33.3542 20.6993 33.3542C20.6992 33.3543 20.6991 33.3543 20.6991 33.3543C20.699 33.3543 20.6989 33.3544 21.0151 34.3031C21.3313 35.2517 21.3312 35.2518 21.3312 35.2518C21.3311 35.2518 21.3311 35.2518 21.331 35.2518C21.331 35.2519 21.3309 35.2519 21.3309 35.2519C21.3309 35.2519 21.331 35.2519 21.3312 35.2518C21.3316 35.2517 21.3324 35.2514 21.3337 35.251C21.3362 35.2501 21.3405 35.2487 21.3464 35.2468C21.3581 35.243 21.3765 35.237 21.4008 35.2293C21.4495 35.2138 21.5218 35.1912 21.6131 35.1638C21.796 35.1089 22.0525 35.0357 22.3448 34.9626C22.9519 34.8108 23.6291 34.6818 24.1212 34.6818V32.6818ZM4.86359 37.4091C5.51438 38.1684 5.51444 38.1683 5.51452 38.1683C5.51457 38.1682 5.51466 38.1681 5.51476 38.1681C5.51495 38.1679 5.5152 38.1677 5.51553 38.1674C5.51617 38.1668 5.51708 38.1661 5.51825 38.1651C5.52058 38.163 5.52396 38.1602 5.52834 38.1564C5.53711 38.1488 5.54993 38.1378 5.56659 38.1234C5.59992 38.0946 5.64861 38.0524 5.711 37.9981C5.83576 37.8894 6.0154 37.7319 6.23652 37.5353C6.6785 37.1424 7.28757 36.5923 7.95615 35.9631C9.27768 34.7193 10.8873 33.1149 11.8757 31.797L10.2757 30.597C9.40052 31.7639 7.90404 33.2656 6.58542 34.5067C5.93392 35.1198 5.33939 35.6568 4.90779 36.0405C4.69212 36.2322 4.51748 36.3853 4.39715 36.4901C4.337 36.5426 4.29045 36.5829 4.25916 36.6099C4.24352 36.6234 4.23169 36.6336 4.22389 36.6403C4.21999 36.6437 4.2171 36.6462 4.21524 36.6478C4.21431 36.6486 4.21364 36.6491 4.21323 36.6495C4.21303 36.6497 4.21289 36.6498 4.21281 36.6498C4.21278 36.6499 4.21277 36.6499 4.21275 36.6499C4.21276 36.6499 4.21279 36.6499 4.86359 37.4091ZM11.8757 31.797C12.6719 30.7354 13.9073 29.8939 15.2091 29.3153C16.5172 28.734 17.7748 28.4697 18.5302 28.4697L18.5303 26.4697C17.422 26.4697 15.8842 26.8266 14.3968 27.4877C12.9032 28.1515 11.3432 29.1737 10.2757 30.597L11.8757 31.797Z" fill="#EEE"/>
</g>
</svg>
