<svg width="50" height="50" viewBox="0 0 50 50" fill="none" xmlns="http://www.w3.org/2000/svg">
<g clip-path="url(#clip0_20_37)">
<path d="M24.232 36.5485C24.8178 37.1342 25.7676 37.1342 26.3534 36.5485L35.8993 27.0025C36.4851 26.4167 36.4851 25.467 35.8993 24.8812C35.3135 24.2954 34.3638 24.2954 33.778 24.8812L25.2927 33.3665L16.8074 24.8812C16.2216 24.2954 15.2719 24.2954 14.6861 24.8812C14.1003 25.467 14.1003 26.4167 14.6861 27.0025L24.232 36.5485ZM26.7927 4.99999C26.7927 4.17156 26.1211 3.49999 25.2927 3.49999C24.4643 3.49999 23.7927 4.17156 23.7927 4.99999H26.7927ZM26.7927 35.4878V4.99999H23.7927V35.4878H26.7927Z" fill="#464646"/>
<path d="M43.5854 37.9268L42.3506 39.0792C32.7455 48.0441 17.8399 48.0441 8.23472 39.0792L6.99999 37.9268" stroke="#464646" stroke-width="3" stroke-linecap="round"/>
</g>
<defs>
<clipPath id="clip0_20_37">
<rect width="50" height="50" fill="white"/>
</clipPath>
</defs>
</svg>
