<svg width="50" height="50" viewBox="0 0 50 50" fill="none" xmlns="http://www.w3.org/2000/svg">
<circle cx="25" cy="25" r="10" fill="#747474"/>
<path d="M48.5 25C48.5 25.8354 48.0829 26.7829 47.0047 27.8026C45.9233 28.8253 44.278 29.8154 42.1206 30.6784C37.814 32.401 31.7616 33.5 25 33.5C18.2384 33.5 12.186 32.401 7.87942 30.6784C5.72195 29.8154 4.07667 28.8253 2.99529 27.8026C1.91707 26.7829 1.5 25.8354 1.5 25C1.5 24.1646 1.91707 23.2171 2.99529 22.1974C4.07667 21.1747 5.72195 20.1846 7.87942 19.3216C12.186 17.599 18.2384 16.5 25 16.5C31.7616 16.5 37.814 17.599 42.1206 19.3216C44.278 20.1846 45.9233 21.1747 47.0047 22.1974C48.0829 23.2171 48.5 24.1646 48.5 25Z" stroke="#747474" stroke-width="3"/>
<g style="mix-blend-mode:multiply">
<path d="M9 40.8198L40.8198 9.00002" stroke="#464646" stroke-width="3" stroke-linecap="round"/>
</g>
</svg>
