<svg width="50" height="50" viewBox="0 0 50 50" fill="none" xmlns="http://www.w3.org/2000/svg">
<path d="M30.8724 30.9687C30.8722 30.9707 30.8721 30.9728 30.8719 30.9748C30.6947 32.992 30.5615 34.4935 30.3631 35.6564C30.1624 36.833 29.9238 37.4593 29.6594 37.8287C29.4445 38.129 29.135 38.3693 28.4488 38.5438C27.7009 38.7341 26.6267 38.8143 25 38.8143C23.3733 38.8143 22.2991 38.7341 21.5512 38.5438C20.865 38.3693 20.5555 38.129 20.3406 37.8287C20.0762 37.4593 19.8376 36.833 19.6369 35.6564C19.4383 34.4926 19.3051 32.9896 19.1277 30.9699C19.1276 30.9695 19.1276 30.9691 19.1276 30.9687L19.0747 30.3674L18.6201 29.9703C12.9722 25.0371 9.5 21.4346 9.5 15.7429C9.5 7.77312 16.1667 2.5 25 2.5C33.8333 2.5 40.5 7.77312 40.5 15.7429C40.5 21.4346 37.0278 25.0371 31.3799 29.9703L30.9253 30.3674L30.8724 30.9687Z" stroke="white" stroke-width="3"/>
<rect x="18.5" y="39.5" width="13" height="4" rx="2" stroke="white" stroke-width="3"/>
<rect x="18.5" y="43.5" width="13" height="4" rx="2" stroke="white" stroke-width="3"/>
</svg>
