<svg width="46" height="46" viewBox="0 0 46 46" fill="none" xmlns="http://www.w3.org/2000/svg">
<rect x="1.5" y="11.571" width="32" height="32" rx="8.5" stroke="#747474" stroke-width="3"/>
<g style="mix-blend-mode:multiply">
<path d="M7.93934 35.9393C7.35355 36.5251 7.35355 37.4749 7.93934 38.0607C8.52513 38.6464 9.47487 38.6464 10.0607 38.0607L7.93934 35.9393ZM45.8553 1.64466C45.8553 0.816234 45.1838 0.144662 44.3553 0.144662H30.8553C30.0269 0.144662 29.3553 0.816234 29.3553 1.64466C29.3553 2.47309 30.0269 3.14466 30.8553 3.14466H42.8553V15.1447C42.8553 15.9731 43.5269 16.6447 44.3553 16.6447C45.1838 16.6447 45.8553 15.9731 45.8553 15.1447V1.64466ZM10.0607 38.0607L45.416 2.70532L43.2947 0.584001L7.93934 35.9393L10.0607 38.0607Z" fill="#464646"/>
</g>
</svg>
