<svg width="42" height="50" viewBox="0 0 42 50" fill="none" xmlns="http://www.w3.org/2000/svg">
<path d="M33.4999 23.148L32.4622 23.148L32.4622 23.148L33.4999 23.148ZM32.7662 24.2904C33.1714 24.6657 33.8285 24.6657 34.2337 24.2904L40.8375 18.1757C41.2428 17.8005 41.2428 17.1921 40.8375 16.8169C40.4323 16.4417 39.7752 16.4417 39.37 16.8169L33.4999 22.2522L27.6298 16.817C27.2246 16.4417 26.5676 16.4417 26.1623 16.817C25.7571 17.1922 25.7571 17.8006 26.1623 18.1758L32.7662 24.2904ZM7.46229 23.611C7.46229 24.1417 7.92688 24.5719 8.49998 24.5719C9.07308 24.5719 9.53768 24.1417 9.53767 23.611L7.46229 23.611ZM8.49998 23.148L7.46229 23.148L7.46229 23.148L8.49998 23.148ZM21 11.574L21 12.5348L21 12.5348V11.574ZM32.4622 23.148L32.4622 23.611L34.5376 23.611L34.5376 23.148L32.4622 23.148ZM9.53767 23.611L9.53767 23.148L7.46229 23.148L7.46229 23.611L9.53767 23.611ZM21 12.5348C27.3304 12.5348 32.4622 17.2865 32.4622 23.148H34.5376C34.5376 16.2252 28.4766 10.6132 21 10.6132V12.5348ZM21 10.6132C13.5233 10.6132 7.46229 16.2252 7.46229 23.148L9.53767 23.148C9.53768 17.2865 14.6695 12.5348 21 12.5348L21 10.6132Z" fill="#464646"/>
<g style="mix-blend-mode:multiply">
<path d="M8.50001 26.852L9.5377 26.852L9.5377 26.852L8.50001 26.852ZM9.23376 25.7096C8.82852 25.3343 8.17149 25.3343 7.76624 25.7096L1.16242 31.8243C0.757172 32.1995 0.757174 32.8079 1.16242 33.1831C1.56767 33.5583 2.2247 33.5583 2.62994 33.1831L8.50001 27.7478L14.3701 33.183C14.7754 33.5583 15.4324 33.5583 15.8376 33.183C16.2429 32.8078 16.2429 32.1994 15.8376 31.8242L9.23376 25.7096ZM34.5377 26.389C34.5377 25.8583 34.0731 25.4281 33.5 25.4281C32.9269 25.4281 32.4623 25.8583 32.4623 26.389L34.5377 26.389ZM33.5 26.852L34.5377 26.852L34.5377 26.852L33.5 26.852ZM21 38.426L21 37.4652H21V38.426ZM9.5377 26.852L9.5377 26.389L7.46231 26.389L7.46231 26.852L9.5377 26.852ZM32.4623 26.389L32.4623 26.852L34.5377 26.852L34.5377 26.389L32.4623 26.389ZM21 37.4652C14.6696 37.4652 9.5377 32.7135 9.5377 26.852H7.46231C7.46231 33.7748 13.5234 39.3868 21 39.3868V37.4652ZM21 39.3868C28.4766 39.3868 34.5376 33.7748 34.5377 26.852L32.4623 26.852C32.4623 32.7135 27.3304 37.4652 21 37.4652L21 39.3868Z" fill="#464646"/>
</g>
</svg>
