<svg width="50" height="44" viewBox="0 0 50 44" fill="none" xmlns="http://www.w3.org/2000/svg">
<ellipse cx="25" cy="19" rx="15" ry="5" fill="#D9D9D9"/>
<path d="M9 18H41V39C41 41.7614 38.7614 44 36 44H14C11.2386 44 9 41.7614 9 39V18Z" fill="#464646"/>
<g style="">
<path d="M26 21V20H24V21H26ZM24 39C24 39.5523 24.4477 40 25 40C25.5523 40 26 39.5523 26 39H24ZM24 21V39H26V21H24Z" fill="#D9D9D9"/>
</g>
<g style="">
<path d="M35 21V20H33V21H35ZM33 39C33 39.5523 33.4477 40 34 40C34.5523 40 35 39.5523 35 39H33ZM33 21V39H35V21H33Z" fill="#D9D9D9"/>
</g>
<g style="">
<path d="M17 21V20H15V21H17ZM15 39C15 39.5523 15.4477 40 16 40C16.5523 40 17 39.5523 17 39H15ZM15 21L15 39H17V21H15Z" fill="#D9D9D9"/>
</g>
<path d="M23.7615 8.34887C23.8596 8.30474 23.9642 8.27672 24.0712 8.2659L39.5083 6.70416C40.7322 6.58034 41.056 8.34663 39.8678 8.66501L10.2808 16.5928C9.09262 16.9112 8.48991 15.2196 9.61172 14.7149L23.7615 8.34887Z" fill="#747474"/>
</svg>
