<svg width="50" height="50" viewBox="0 0 50 50" fill="none" xmlns="http://www.w3.org/2000/svg">
<path d="M26.0606 15.9393C25.4748 15.3536 24.5251 15.3536 23.9393 15.9393L14.3933 25.4853C13.8076 26.0711 13.8075 27.0208 14.3933 27.6066C14.9791 28.1924 15.9289 28.1924 16.5147 27.6066L24.9999 19.1213L33.4852 27.6066C34.071 28.1924 35.0208 28.1924 35.6065 27.6066C36.1923 27.0208 36.1923 26.0711 35.6065 25.4853L26.0606 15.9393ZM23.4999 47.4878C23.4999 48.3162 24.1715 48.9878 24.9999 48.9878C25.8284 48.9878 26.4999 48.3162 26.4999 47.4878L23.4999 47.4878ZM23.4999 17L23.4999 47.4878L26.4999 47.4878L26.4999 17L23.4999 17Z" fill="#464646"/>
<path d="M43.5853 3.00007L42.3506 4.15248C32.7454 13.1173 17.8399 13.1173 8.23469 4.15248L6.99996 3.00007" stroke="#464646" stroke-width="3" stroke-linecap="round"/>
</svg>
